<?xml version="1.0" encoding="UTF-8"?>
<svg xmlns="http://www.w3.org/2000/svg" height="555555555555555555555555555555555" width="555555555555555555555555555555555" class="pyqrcode"><path transform="scale(5)" stroke="#000" class="pyqrline" d="M4 4.5h7m3 0h2m3 0h2m1 0h7m-25 1h1m5 0h1m2 0h5m4 0h1m5 0h1m-25 1h1m1 0h3m1 0h1m1 0h1m1 0h1m2 0h3m2 0h1m1 0h3m1 0h1m-25 1h1m1 0h3m1 0h1m1 0h2m3 0h1m2 0h1m1 0h1m1 0h3m1 0h1m-25 1h1m1 0h3m1 0h1m2 0h1m3 0h1m4 0h1m1 0h3m1 0h1m-25 1h1m5 0h1m6 0h1m4 0h1m5 0h1m-25 1h7m1 0h1m1 0h1m1 0h1m1 0h1m1 0h1m1 0h7m-14 1h2m-10 1h2m1 0h2m5 0h1m1 0h2m4 0h2m-21 1h1m2 0h1m1 0h1m1 0h2m1 0h4m2 0h1m1 0h2m-20 1h1m2 0h2m3 0h1m1 0h2m1 0h2m3 0h2m2 0h1m-24 1h3m1 0h1m1 0h1m1 0h1m3 0h2m2 0h1m3 0h1m1 0h2m-22 1h4m2 0h3m1 0h1m1 0h2m2 0h1m2 0h3m-25 1h3m1 0h2m3 0h2m2 0h2m1 0h1m1 0h3m2 0h2m-25 1h3m1 0h1m1 0h2m2 0h3m1 0h1m1 0h1m1 0h2m2 0h2m-24 1h1m1 0h1m4 0h2m2 0h1m2 0h2m1 0h3m1 0h1m2 0h1m-25 1h1m1 0h2m1 0h2m3 0h3m1 0h1m1 0h6m1 0h1m-16 1h3m1 0h2m1 0h2m3 0h4m-24 1h7m1 0h3m1 0h2m1 0h2m1 0h1m1 0h5m-25 1h1m5 0h1m2 0h1m3 0h2m1 0h1m3 0h1m-21 1h1m1 0h3m1 0h1m1 0h2m1 0h2m2 0h6m2 0h2m-25 1h1m1 0h3m1 0h1m1 0h2m3 0h1m1 0h2m1 0h1m1 0h1m3 0h1m-25 1h1m1 0h3m1 0h1m2 0h1m1 0h2m1 0h2m2 0h1m1 0h2m1 0h2m-25 1h1m5 0h1m2 0h1m1 0h4m1 0h1m2 0h1m2 0h2m-24 1h7m3 0h2m1 0h1m3 0h1m3 0h1m1 0h2"/></svg>
